<svg width="16" height="23" viewBox="0 0 16 23" fill="none" xmlns="http://www.w3.org/2000/svg">
<path d="M1.32313e-06 4.5C1.32313e-06 3.30653 0.447591 2.16193 1.24431 1.31802C2.04102 0.474106 3.1216 3.6491e-08 4.24832 3.6491e-08H10.8568C11.7354 -0.000118447 12.5924 0.288294 13.3098 0.825517C14.0272 1.36274 14.5697 2.12235 14.8626 2.99973C15.1555 3.87711 15.1844 4.82911 14.9454 5.72461C14.7063 6.62011 14.2109 7.41507 13.5276 8C14.3799 8.72735 14.9344 9.77509 15.0753 10.9248C15.2162 12.0745 14.9328 13.2375 14.2841 14.1713C13.6354 15.1051 12.6715 15.7377 11.5933 15.9372C10.5151 16.1366 9.40577 15.8876 8.49664 15.242V18.5C8.49657 19.2601 8.31473 20.0078 7.96807 20.6734C7.62142 21.3389 7.12126 21.9006 6.51426 22.306C5.90725 22.7114 5.21319 22.9474 4.49682 22.9918C3.78044 23.0363 3.06511 22.8878 2.41756 22.5603C1.77002 22.2327 1.21135 21.7367 0.793693 21.1186C0.376036 20.5005 0.112999 19.7804 0.0291218 19.0255C-0.0547552 18.2706 0.0432618 17.5055 0.314028 16.8016C0.584794 16.0977 1.01949 15.4779 1.57754 15C1.08486 14.5781 0.687483 14.0449 0.414525 13.4393C0.141568 12.8337 -6.38629e-05 12.1711 1.32313e-06 11.5C1.32313e-06 10.086 0.615536 8.825 1.57754 8C1.08486 7.57812 0.687483 7.04486 0.414525 6.43926C0.141568 5.83367 -6.38629e-05 5.17107 1.32313e-06 4.5ZM4.24832 7H6.6085V2H4.24832C3.62236 2 3.02204 2.26339 2.57942 2.73223C2.13681 3.20107 1.88814 3.83696 1.88814 4.5C1.88814 5.16304 2.13681 5.79893 2.57942 6.26777C3.02204 6.73661 3.62236 7 4.24832 7ZM8.49664 2V7H10.8568C11.4828 7 12.0831 6.73661 12.5257 6.26777C12.9683 5.79893 13.217 5.16304 13.217 4.5C13.217 3.83696 12.9683 3.20107 12.5257 2.73223C12.0831 2.26339 11.4828 2 10.8568 2H8.49664ZM6.6085 9H4.24832C3.62236 9 3.02204 9.26339 2.57942 9.73223C2.13681 10.2011 1.88814 10.837 1.88814 11.5C1.88814 12.163 2.13681 12.7989 2.57942 13.2678C3.02204 13.7366 3.62236 14 4.24832 14H6.6085V9ZM6.6085 16H4.24832C3.78152 16 3.32521 16.1466 2.93708 16.4213C2.54895 16.696 2.24644 17.0865 2.0678 17.5433C1.88917 18.0001 1.84243 18.5028 1.93349 18.9877C2.02456 19.4727 2.24935 19.9181 2.57942 20.2678C2.9095 20.6174 3.33005 20.8555 3.78787 20.952C4.24571 21.0484 4.72026 20.9989 5.15153 20.8097C5.58279 20.6205 5.9514 20.3 6.21074 19.8889C6.47008 19.4778 6.6085 18.9945 6.6085 18.5V16ZM8.49664 11.5C8.49664 12.163 8.74531 12.7989 9.18793 13.2678C9.63054 13.7366 10.2309 14 10.8568 14C11.4828 14 12.0831 13.7366 12.5257 13.2678C12.9683 12.7989 13.217 12.163 13.217 11.5C13.217 10.837 12.9683 10.2011 12.5257 9.73223C12.0831 9.26339 11.4828 9 10.8568 9C10.2309 9 9.63054 9.26339 9.18793 9.73223C8.74531 10.2011 8.49664 10.837 8.49664 11.5Z" fill="#F2F2F2"/>
</svg>
