<svg width="16" height="21" viewBox="0 0 16 21" fill="none" xmlns="http://www.w3.org/2000/svg">
<path d="M1.33568e-06 4.07346C1.33568e-06 2.99311 0.451834 1.95701 1.2561 1.19309C2.06037 0.429167 3.15119 3.30321e-08 4.28859 3.30321e-08H10.9597C11.8466 -0.000107219 12.7118 0.260967 13.436 0.747269C14.1602 1.23357 14.7078 1.92118 15.0035 2.7154C15.2992 3.50961 15.3284 4.37137 15.087 5.18199C14.8457 5.99261 14.3456 6.71222 13.6558 7.24171C14.5162 7.90011 15.0759 8.84854 15.2182 9.88929C15.3605 10.93 15.0744 11.9828 14.4195 12.8281C13.7646 13.6734 12.7916 14.246 11.7032 14.4265C10.6147 14.6071 9.49493 14.3817 8.57718 13.7973V16.7464C8.57711 17.4345 8.39354 18.1113 8.0436 18.7138C7.69366 19.3163 7.18876 19.8247 6.576 20.1917C5.96325 20.5587 5.2626 20.7723 4.53944 20.8125C3.81628 20.8528 3.09417 20.7184 2.44048 20.4218C1.78679 20.1253 1.22283 19.6764 0.801216 19.1169C0.379601 18.5573 0.11407 17.9055 0.0293979 17.2222C-0.0552742 16.5388 0.0436719 15.8462 0.317005 15.209C0.590337 14.5718 1.02915 14.0108 1.5925 13.5782C1.09514 13.1963 0.694 12.7136 0.418455 12.1654C0.14291 11.6172 -6.44682e-05 11.0174 1.33568e-06 10.41C1.33568e-06 9.12998 0.62137 7.98851 1.5925 7.24171C1.09514 6.85981 0.694 6.3771 0.418455 5.8289C0.14291 5.28071 -6.44682e-05 4.68092 1.33568e-06 4.07346ZM4.28859 6.33649H6.67114V1.81043H4.28859C3.6567 1.81043 3.05069 2.04885 2.60387 2.47325C2.15706 2.89765 1.90604 3.47327 1.90604 4.07346C1.90604 4.67365 2.15706 5.24926 2.60387 5.67367C3.05069 6.09807 3.6567 6.33649 4.28859 6.33649ZM8.57718 1.81043V6.33649H10.9597C11.5916 6.33649 12.1976 6.09807 12.6445 5.67367C13.0913 5.24926 13.3423 4.67365 13.3423 4.07346C13.3423 3.47327 13.0913 2.89765 12.6445 2.47325C12.1976 2.04885 11.5916 1.81043 10.9597 1.81043H8.57718ZM6.67114 8.14692H4.28859C3.6567 8.14692 3.05069 8.38535 2.60387 8.80975C2.15706 9.23415 1.90604 9.80976 1.90604 10.41C1.90604 11.0101 2.15706 11.5858 2.60387 12.0102C3.05069 12.4346 3.6567 12.673 4.28859 12.673H6.67114V8.14692ZM6.67114 14.4834H4.28859C3.81737 14.4834 3.35673 14.6161 2.96492 14.8648C2.57311 15.1135 2.26773 15.4669 2.0874 15.8804C1.90707 16.2939 1.85989 16.749 1.95182 17.1879C2.04375 17.6269 2.27067 18.0302 2.60387 18.3467C2.93708 18.6631 3.36161 18.8787 3.82378 18.966C4.28595 19.0533 4.765 19.0085 5.20036 18.8372C5.63571 18.6659 6.00781 18.3759 6.26961 18.0037C6.53141 17.6316 6.67114 17.194 6.67114 16.7464V14.4834ZM8.57718 10.41C8.57718 11.0101 8.8282 11.5858 9.27501 12.0102C9.72183 12.4346 10.3278 12.673 10.9597 12.673C11.5916 12.673 12.1976 12.4346 12.6445 12.0102C13.0913 11.5858 13.3423 11.0101 13.3423 10.41C13.3423 9.80976 13.0913 9.23415 12.6445 8.80975C12.1976 8.38535 11.5916 8.14692 10.9597 8.14692C10.3278 8.14692 9.72183 8.38535 9.27501 8.80975C8.8282 9.23415 8.57718 9.80976 8.57718 10.41Z" fill="#03588C"/>
</svg>
